<svg width="11" height="7" viewBox="0 0 11 7" fill="none" xmlns="http://www.w3.org/2000/svg">
<path d="M0.295828 5.95579C0.483191 6.14204 0.736642 6.24658 1.00083 6.24658C1.26501 6.24658 1.51847 6.14204 1.70583 5.95579L5.29583 2.41579L8.83583 5.95579C9.02319 6.14204 9.27664 6.24658 9.54083 6.24658C9.80501 6.24658 10.0585 6.14204 10.2458 5.95579C10.3396 5.86283 10.414 5.75223 10.4647 5.63037C10.5155 5.50851 10.5416 5.3778 10.5416 5.24579C10.5416 5.11378 10.5155 4.98307 10.4647 4.86121C10.414 4.73935 10.3396 4.62875 10.2458 4.53579L6.00583 0.29579C5.91286 0.202062 5.80226 0.127668 5.6804 0.076899C5.55855 0.0261302 5.42784 -8.13601e-06 5.29583 -8.12447e-06C5.16382 -8.11293e-06 5.03311 0.0261302 4.91125 0.0768991C4.78939 0.127668 4.67879 0.202062 4.58583 0.29579L0.295828 4.53579C0.2021 4.62875 0.127705 4.73935 0.0769366 4.86121C0.0261678 4.98307 2.85112e-05 5.11378 2.85227e-05 5.24579C2.85343e-05 5.3778 0.0261678 5.50851 0.0769367 5.63037C0.127706 5.75223 0.2021 5.86283 0.295828 5.95579Z" fill="#626467"/>
</svg>
